# procedural book box 0.18x0.13x0.03 m, per-face UV (cover/spine/pages)
v -0.09000000 -0.06500000 -0.01500000
v 0.09000000 -0.06500000 -0.01500000
v 0.09000000 0.06500000 -0.01500000
v -0.09000000 0.06500000 -0.01500000
v -0.09000000 -0.06500000 0.01500000
v 0.09000000 -0.06500000 0.01500000
v 0.09000000 0.06500000 0.01500000
v -0.09000000 0.06500000 0.01500000
vt 0.00000000 0.00000000
vt 0.62000000 0.00000000
vt 0.62000000 1.00000000
vt 0.00000000 1.00000000
vt 0.00000000 0.00000000
vt 0.62000000 0.00000000
vt 0.62000000 1.00000000
vt 0.00000000 1.00000000
vt 0.62000000 0.00000000
vt 0.74000000 0.00000000
vt 0.74000000 1.00000000
vt 0.62000000 1.00000000
vt 0.74000000 0.00000000
vt 1.00000000 0.00000000
vt 1.00000000 1.00000000
vt 0.74000000 1.00000000
vt 0.74000000 0.00000000
vt 1.00000000 0.00000000
vt 1.00000000 1.00000000
vt 0.74000000 1.00000000
vt 0.74000000 0.00000000
vt 1.00000000 0.00000000
vt 1.00000000 1.00000000
vt 0.74000000 1.00000000
vn 0.000000 0.000000 1.000000
vn 0.000000 0.000000 -1.000000
vn -1.000000 0.000000 0.000000
vn 1.000000 0.000000 -0.000000
vn 0.000000 -1.000000 0.000000
vn 0.000000 1.000000 0.000000
f 5/1/1 6/2/1 7/3/1
f 5/1/1 7/3/1 8/4/1
f 2/5/2 1/6/2 4/7/2
f 2/5/2 4/7/2 3/8/2
f 1/9/3 5/10/3 8/11/3
f 1/9/3 8/11/3 4/12/3
f 3/13/4 7/14/4 6/15/4
f 3/13/4 6/15/4 2/16/4
f 1/17/5 2/18/5 6/19/5
f 1/17/5 6/19/5 5/20/5
f 4/21/6 8/22/6 7/23/6
f 4/21/6 7/23/6 3/24/6
